<?xml version="1.0" encoding="UTF-8" standalone="no"?>
<!-- Created with Inkscape (http://www.inkscape.org/) -->

<svg
   width="2.375in"
   height="3.25in"
   viewBox="0 0 60.325001 82.549993"
   version="1.1"
   id="svg5"
   xml:space="preserve"
   inkscape:version="1.2.2 (b0a8486, 2022-12-01)"
   sodipodi:docname="altitude80VECTOR.svg"
   xmlns:inkscape="http://www.inkscape.org/namespaces/inkscape"
   xmlns:sodipodi="http://sodipodi.sourceforge.net/DTD/sodipodi-0.dtd"
   xmlns="http://www.w3.org/2000/svg"
   xmlns:svg="http://www.w3.org/2000/svg"><sodipodi:namedview
     id="namedview7"
     pagecolor="#000000"
     bordercolor="#000000"
     borderopacity="0.25"
     inkscape:showpageshadow="2"
     inkscape:pageopacity="0"
     inkscape:pagecheckerboard="0"
     inkscape:deskcolor="#d1d1d1"
     inkscape:document-units="mm"
     showgrid="false"
     inkscape:zoom="1.0053249"
     inkscape:cx="137.76641"
     inkscape:cy="136.27436"
     inkscape:window-width="1390"
     inkscape:window-height="970"
     inkscape:window-x="-209"
     inkscape:window-y="25"
     inkscape:window-maximized="0"
     inkscape:current-layer="layer5" /><defs
     id="defs2"><rect
       x="18.295389"
       y="212.46259"
       width="247.7137"
       height="51.935299"
       id="rect1560" /><rect
       x="20.912916"
       y="232.50243"
       width="185.75591"
       height="40.595661"
       id="rect978" /></defs><g
     inkscape:label="Layer 1"
     inkscape:groupmode="layer"
     id="layer1"
     transform="translate(-0.05388635,-3.3599835)"
     style="display:inline" /><g
     inkscape:groupmode="layer"
     id="layer2"
     inkscape:label="Layer 2"
     transform="translate(-0.93690135,-4.6845049)"
     style="display:inline"><path
       d="m 39.538867,-20.69324 c -10.183374,1.720346 -18.769423,7.463443 -24.221242,16.1821915 -0.846028,1.370805 -1.535262,2.653466 -1.535262,2.885986 0,0.437685 -0.249894,0.40881 -3.446179,-0.437685 -2.7569426,-0.69908 -9.74566065,-0.69908 -13.2849346,0 C -14.448533,0.27005359 -22.314311,8.0252897 -25.165982,19.804793 c -0.470379,1.98326 -0.282554,1.866239 -4.731553,2.624589 -3.759765,0.67021 -7.707353,2.068367 -10.433264,3.759842 -3.446177,2.129154 -6.549371,6.209655 -8.617077,11.312943 -0.940758,2.303924 -1.002822,2.741609 -1.128583,7.173171 -0.125761,4.256792 -0.06206,4.926996 0.563475,6.706611 2.098738,6.151914 7.583225,10.904141 15.416338,13.382835 l 2.255531,0.7006 H 31.48526 94.842667 l 2.44336,-1.457428 C 101.79873,61.266341 105.9962,56.544511 108.06554,51.936655 114.08246,38.464161 105.27757,24.84881 85.474294,17.063184 83.437622,16.275953 81.400943,15.517604 80.994263,15.43098 80.210299,15.25621 80.210299,15.196939 80.210299,12.136181 80.210299,5.72136 78.957591,0.32780389 76.324772,-4.6569435 71.562186,-13.608212 63.477554,-18.913625 51.853642,-20.69324 c -3.415147,-0.524311 -9.213214,-0.524311 -12.314775,0 z m 9.494139,2.478695 c 11.937491,1.253786 20.52354,6.822114 24.596891,15.9192775 2.036672,4.5485822 3.039492,10.7293621 2.694875,16.2110695 -0.251523,3.673207 -0.437711,3.469563 4.042319,4.898122 4.04232,1.282659 10.622716,4.373808 13.755316,6.443697 3.32042,2.215778 7.207573,5.948261 8.773873,8.426961 0.62717,1.019743 1.53526,2.828233 2.00564,4.053142 0.68923,1.866245 0.81499,2.711218 0.81499,5.422436 -0.0311,2.682338 -0.15679,3.586583 -0.84602,5.539452 -1.69206,4.723352 -5.577583,9.563727 -9.712993,12.071295 l -1.97462,1.196035 H 31.736783 c -59.973294,0 -61.44486,0 -63.169583,-0.554706 -5.796438,-1.866239 -10.527991,-5.30541 -12.628364,-9.126036 -3.446177,-6.355556 -1.25271,-15.80226 5.045139,-21.662376 3.384115,-3.148903 8.866967,-5.161037 15.354275,-5.568331 l 2.851671,-0.203645 0.37565,-2.624588 c 0.971789,-6.589597 4.324872,-12.5667338 9.275282,-16.4724648 1.8798824,-1.4863029 6.4856744,-3.6732111 9.1184884,-4.3145416 1.033854,-0.2325205 3.289385,-0.52431061 5.014107,-0.61245531 4.66949,-0.2340398 7.9899066,0.37841551 13.2228706,2.44982081 0.218856,0.088145 0.439348,-0.2917901 0.596141,-0.9908704 0.846027,-4.4893122 7.269636,-12.5667307 12.752487,-16.0940467 3.540909,-2.244656 8.52235,-3.965002 12.909287,-4.402687 3.225687,-0.325224 3.508241,-0.325224 6.578772,-0.0045 z"
       id="path532"
       style="display:none;stroke-width:0.0157548"
       inkscape:label="path532" /><path
       d="m 34.954403,20.91976 c -3.731105,0.611735 -6.876964,2.653921 -8.874468,5.75421 -0.309978,0.487446 -0.562509,0.943545 -0.562509,1.026228 0,0.155635 -0.09155,0.145366 -1.262652,-0.155637 -1.010121,-0.248585 -3.570732,-0.248585 -4.867495,0 -4.213428,0.82952 -7.095387,3.587197 -8.140217,7.775857 -0.172344,0.705228 -0.103526,0.663615 -1.7336036,0.933278 -1.377548,0.238315 -2.823913,0.735487 -3.822665,1.336958 -1.262652,0.757104 -2.399638,2.208085 -3.157228,4.022758 -0.344687,0.81925 -0.549972,0.974884 -0.59605,2.5507 -0.04608,1.51367 0.159806,1.751989 0.388999,2.3848 0.76896,2.187553 2.778433,3.877393 5.648423,4.758788 l 0.826409,0.249128 H 55.217278 l 0.895226,-0.518246 c 1.653421,-0.974891 3.19134,-2.653919 3.94953,-4.292422 2.204555,-4.790671 -1.02149,-9.632147 -8.277254,-12.400627 -0.746221,-0.279931 -1.492445,-0.549591 -1.641449,-0.580394 -0.287237,-0.06215 -0.287237,-0.08322 -0.287237,-1.171593 0,-2.281041 -0.458981,-4.198932 -1.423628,-5.971452 -1.744972,-3.182973 -4.707117,-5.069521 -8.966025,-5.702334 -1.251283,-0.186441 -3.375648,-0.186441 -4.512038,0 z m 3.478578,0.881398 c 4.373801,0.445829 7.519661,2.425868 9.012106,5.660722 0.74622,1.617426 1.113646,3.815243 0.987379,5.76448 -0.09215,1.306148 -0.160373,1.233737 1.481075,1.741717 1.481074,0.456098 3.892081,1.555278 5.039837,2.291307 1.216575,0.787908 2.640801,2.115138 3.21468,2.996537 0.229791,0.36261 0.562507,1.005688 0.734851,1.441253 0.252529,0.663617 0.298605,0.964078 0.298605,1.92816 -0.0114,0.95381 -0.05744,1.275349 -0.309975,1.969768 -0.619957,1.679574 -2.043583,3.400756 -3.558765,4.292421 L 54.609289,50.31282 H 32.095784 c -21.97374,0 -22.5129096,0 -23.1448346,-0.197248 -2.123769,-0.663616 -3.857372,-1.886546 -4.626932,-3.245119 -1.262652,-2.259966 -0.458983,-5.619114 1.848499,-7.702905 1.239912,-1.119716 3.248786,-1.835209 5.6256836,-1.980036 l 1.044829,-0.07241 0.137635,-0.933278 c 0.356057,-2.343188 1.5846,-4.46859 3.398391,-5.857426 0.688773,-0.528513 2.376299,-1.306154 3.340943,-1.534204 0.378796,-0.08268 1.205202,-0.186439 1.837128,-0.217782 1.710864,-0.08322 2.92744,0.134559 4.844755,0.871129 0.08019,0.03135 0.160973,-0.103757 0.218419,-0.352342 0.309978,-1.596351 2.663539,-4.468597 4.672412,-5.722868 1.297361,-0.798178 3.12252,-1.409913 4.729859,-1.565548 1.181867,-0.115648 1.285392,-0.115648 2.41041,-0.0017 z"
       id="path548"
       style="display:inline;fill:#ffffff;stroke-width:0.00568668"
       inkscape:label="path532"
       sodipodi:nodetypes="ccscccccccccccccccsccccscccccccccsccscccccccccccc" /></g><g
     inkscape:groupmode="layer"
     id="layer4"
     inkscape:label="Layer 4"
     transform="translate(-0.93690135,-4.6845049)"><rect
       style="display:inline;fill:#000000;stroke-width:0.309304"
       id="rect1140"
       width="53.49976"
       height="9.2977085"
       x="7.3221421"
       y="44.263542"
       rx="0"
       transform="matrix(0.99999144,0.00413785,0,1,0,0)"
       inkscape:label="rect1140" /></g><g
     inkscape:groupmode="layer"
     id="layer3"
     inkscape:label="Layer 3"
     transform="translate(-0.93690135,-4.6845049)"><text
       xml:space="preserve"
       transform="matrix(0.2691406,0,0,0.26458333,3.3719114,-13.212047)"
       id="text1558"
       style="font-style:normal;font-variant:normal;font-weight:600;font-stretch:condensed;font-size:40px;font-family:'IBM Plex Sans Condensed';-inkscape-font-specification:'IBM Plex Sans Condensed, Semi-Bold Condensed';font-variant-ligatures:normal;font-variant-caps:normal;font-variant-numeric:normal;font-variant-east-asian:normal;white-space:pre;shape-inside:url(#rect1560);display:inline;fill:#000000"
       inkscape:label="text1558"><tspan
         x="18.294922"
         y="248.66289"
         id="tspan2138"><tspan
           style="font-size:39.6599px;fill:#ffffff"
           id="tspan2136">altitude80</tspan></tspan></text><text
       xml:space="preserve"
       style="font-style:normal;font-variant:normal;font-weight:bold;font-stretch:condensed;font-size:4.23333px;font-family:'IBM Plex Sans Condensed';-inkscape-font-specification:'IBM Plex Sans Condensed, Bold Condensed';font-variant-ligatures:normal;font-variant-caps:normal;font-variant-numeric:normal;font-variant-east-asian:normal;fill:#ffffff;stroke-width:0.264583"
       x="55.494022"
       y="48.250401"
       id="text1566"><tspan
         sodipodi:role="line"
         id="tspan1564"
         style="font-style:normal;font-variant:normal;font-weight:bold;font-stretch:condensed;font-size:4.23333px;font-family:'IBM Plex Sans Condensed';-inkscape-font-specification:'IBM Plex Sans Condensed, Bold Condensed';font-variant-ligatures:normal;font-variant-caps:normal;font-variant-numeric:normal;font-variant-east-asian:normal;stroke-width:0.264583"
         x="55.494022"
         y="48.250401">TM</tspan></text></g><g
     inkscape:groupmode="layer"
     id="layer5"
     inkscape:label="Layer 5"
     transform="translate(-0.93690135,-4.6845049)" /></svg>
